<svg xmlns="http://www.w3.org/2000/svg" xmlns:xlink="http://www.w3.org/1999/xlink" viewBox="0 0 92.12 736.95"><defs><style>.cls-1{fill:url(#linear-gradient);}</style><linearGradient id="linear-gradient" x1="46.06" x2="46.06" y2="736.95" gradientUnits="userSpaceOnUse"><stop offset="0.1" stop-color="#13cb9c" stop-opacity="0"/><stop offset="1" stop-color="#00f19c"/></linearGradient></defs><title>road</title><g id="Layer_2" data-name="Layer 2"><g id="Layer_17" data-name="Layer 17"><path class="cls-1" d="M92.12,0S53.9,127.32,55.9,145.11c3.27,29,27.16,102.08,28.58,131.55,1.29,26.6-16.57,78.29-22.87,102.77-8.17,31.79-15.51,91.39-17.15,125.93C43.23,531.63,49.25,583,56.11,606.7c6.34,21.89,34.81,60.34,34.1,84.68-.42,14.16-20,45.57-20,45.57H14.87s20.07-34.27,20-49.19c-.09-21.85-17-53.6-23.07-72.89C4.51,591.76-1,540.34.17,514.24c1.75-37.71,18.72-98.54,37.16-137.7,9.39-19.94,31.39-72.29,30.34-97.71-1.25-30.17-28.22-104.72-24.91-134.45C45.46,120.17,92.12,0,92.12,0Z"/></g></g></svg>